<?xml version="1.0" encoding="UTF-8" standalone="no"?>
<!-- Created with Inkscape (http://www.inkscape.org/) -->

<svg
   xmlns:dc="http://purl.org/dc/elements/1.1/"
   xmlns:cc="http://creativecommons.org/ns#"
   xmlns:rdf="http://www.w3.org/1999/02/22-rdf-syntax-ns#"
   xmlns:svg="http://www.w3.org/2000/svg"
   xmlns="http://www.w3.org/2000/svg"
   xmlns:sodipodi="http://sodipodi.sourceforge.net/DTD/sodipodi-0.dtd"
   xmlns:inkscape="http://www.inkscape.org/namespaces/inkscape"
   width="24"
   height="24"
   viewBox="0 0 24 24"
   id="svg2"
   version="1.1"
   inkscape:version="0.91 r13725"
   sodipodi:docname="ic_skull.svg">
  <defs
     id="defs4" />
  <sodipodi:namedview
     id="base"
     pagecolor="#ffffff"
     bordercolor="#666666"
     borderopacity="1.0"
     inkscape:pageopacity="0.0"
     inkscape:pageshadow="2"
     inkscape:zoom="22.4"
     inkscape:cx="9.0264853"
     inkscape:cy="13.365961"
     inkscape:document-units="px"
     inkscape:current-layer="layer2"
     showgrid="true"
     units="px"
     showguides="true"
     inkscape:window-width="1920"
     inkscape:window-height="1016"
     inkscape:window-x="0"
     inkscape:window-y="27"
     inkscape:window-maximized="1"
     inkscape:guide-bbox="true">
    <inkscape:grid
       type="xygrid"
       id="grid4136" />
    <sodipodi:guide
       position="24,22"
       orientation="0,1"
       id="guide4315" />
    <sodipodi:guide
       position="26,2"
       orientation="0,1"
       id="guide4317" />
    <sodipodi:guide
       position="24,24"
       orientation="-0.70710678,0.70710678"
       id="guide4319" />
    <sodipodi:guide
       position="4,24"
       orientation="1,0"
       id="guide4321" />
    <sodipodi:guide
       position="20,24"
       orientation="1,0"
       id="guide4323" />
    <sodipodi:guide
       position="0,24"
       orientation="0.70710678,0.70710678"
       id="guide4325" />
    <sodipodi:guide
       position="24,7"
       orientation="0,1"
       id="guide4327" />
    <sodipodi:guide
       position="24,14"
       orientation="0,1"
       id="guide4329" />
    <sodipodi:guide
       position="12,24"
       orientation="1,0"
       id="guide4331" />
  </sodipodi:namedview>
  <metadata
     id="metadata7">
    <rdf:RDF>
      <cc:Work
         rdf:about="">
        <dc:format>image/svg+xml</dc:format>
        <dc:type
           rdf:resource="http://purl.org/dc/dcmitype/StillImage" />
        <dc:title></dc:title>
      </cc:Work>
    </rdf:RDF>
  </metadata>
  <g
     inkscape:groupmode="layer"
     id="layer2"
     inkscape:label="Layer 2"
     style="display:inline">
    <path
       style="fill:#000000;fill-opacity:1;stroke:none;stroke-width:0.1;stroke-linecap:butt;stroke-linejoin:miter;stroke-miterlimit:4;stroke-dasharray:none;stroke-opacity:1"
       d="M 12 2 A 8 8 0 0 0 4 10 A 8 8 0 0 0 8 16.919922 L 8 22 L 10 22 L 10 18 L 11 18 L 11 22 L 13 22 L 13 18 L 14 18 L 14 22 L 16 22 L 16 16.916016 A 8 8 0 0 0 20 10 A 8 8 0 0 0 12 2 z M 8.5 8 A 2.5 2.5 0 0 1 11 10.5 A 2.5 2.5 0 0 1 8.5 13 A 2.5 2.5 0 0 1 6 10.5 A 2.5 2.5 0 0 1 8.5 8 z M 15.5 8 A 2.5 2.5 0 0 1 18 10.5 A 2.5 2.5 0 0 1 15.5 13 A 2.5 2.5 0 0 1 13 10.5 A 2.5 2.5 0 0 1 15.5 8 z M 11 14 L 13 14 L 13 16 L 11 16 L 11 14 z "
       id="path4160" />
  </g>
</svg>
